<svg width="715" height="476" xmlns="http://www.w3.org/2000/svg" xmlns:xlink="http://www.w3.org/1999/xlink" xml:space="preserve" overflow="hidden"><g transform="translate(-1540 -907)"><text font-family="OPPO Sans 4.0,OPPO Sans 4.0_MSFontService,sans-serif" font-weight="400" font-size="83" transform="matrix(1 0 0 1 1589.63 1011)">关于我</text><text font-family="OPPO Sans 4.0,OPPO Sans 4.0_MSFontService,sans-serif" font-weight="400" font-size="83" transform="matrix(1 0 0 1 1833.69 1011)"> </text><text fill="#BFBFBF" font-family="Times New Roman,Times New Roman_MSFontService,sans-serif" font-style="italic" font-weight="700" font-size="32" transform="matrix(1 0 0 1 1852.02 1011)">About Me</text><text fill="#BFBFBF" font-family="Times New Roman,Times New Roman_MSFontService,sans-serif" font-style="italic" font-weight="700" font-size="32" transform="matrix(1 0 0 1 1983.22 1011)"> </text><path d="M0 0 628.662 0.000360892" stroke="#000000" stroke-width="2.29167" stroke-miterlimit="8" fill="none" fill-rule="evenodd" transform="matrix(1 0 0 -1 1576 1054)"/><text font-family="OPPO Sans 4.0,OPPO Sans 4.0_MSFontService,sans-serif" font-weight="400" font-size="37" transform="matrix(1 0 0 1 1573.3 1101)">该程序由何逸钦远开发。</text><text font-family="OPPO Sans 4.0,OPPO Sans 4.0_MSFontService,sans-serif" font-weight="400" font-size="37" transform="matrix(1 0 0 1 1970.33 1101)"> </text><text font-family="OPPO Sans 4.0,OPPO Sans 4.0_MSFontService,sans-serif" font-weight="400" font-size="37" transform="matrix(1 0 0 1 1573.3 1145)">实现完全</text><text font-family="Segoe UI Emoji,Segoe UI Emoji_MSFontService,sans-serif" font-weight="400" font-size="37" transform="matrix(1 0 0 1 1717.67 1145)">✅</text><text font-family="OPPO Sans 4.0,OPPO Sans 4.0_MSFontService,sans-serif" font-weight="400" font-size="37" transform="matrix(1 0 0 1 1768.09 1145)">完全无广告</text><text font-family="Segoe UI Emoji,Segoe UI Emoji_MSFontService,sans-serif" font-weight="400" font-size="37" transform="matrix(1 0 0 1 1948.56 1145)">✅</text><text font-family="OPPO Sans 4.0,OPPO Sans 4.0_MSFontService,sans-serif" font-weight="400" font-size="37" transform="matrix(1 0 0 1 1998.98 1145)">无需支付订阅</text><text font-family="OPPO Sans 4.0,OPPO Sans 4.0_MSFontService,sans-serif" font-weight="400" font-size="37" transform="matrix(1 0 0 1 2215.54 1145)"> </text><text font-family="Segoe UI Emoji,Segoe UI Emoji_MSFontService,sans-serif" font-weight="400" font-size="37" transform="matrix(1 0 0 1 1573.3 1189)">✅</text><text font-family="OPPO Sans 4.0,OPPO Sans 4.0_MSFontService,sans-serif" font-weight="400" font-size="37" transform="matrix(1 0 0 1 1623.72 1189)">轻量</text><text font-family="OPPO Sans 4.0,OPPO Sans 4.0_MSFontService,sans-serif" font-weight="400" font-size="37" transform="matrix(1 0 0 1 1695.9 1189)"> </text><text font-family="OPPO Sans 4.0,OPPO Sans 4.0_MSFontService,sans-serif" font-weight="400" font-size="37" transform="matrix(1 0 0 1 1573.3 1233)"> </text><text font-family="OPPO Sans 4.0,OPPO Sans 4.0_MSFontService,sans-serif" font-weight="700" font-size="37" transform="matrix(1 0 0 1 1573.3 1277)">联系我：</text><text font-family="OPPO Sans 4.0,OPPO Sans 4.0_MSFontService,sans-serif" font-weight="700" font-size="37" transform="matrix(1 0 0 1 1717.67 1277)"> </text><text fill="#0070C0" font-family="OPPO Sans 4.0,OPPO Sans 4.0_MSFontService,sans-serif" font-style="oblique" font-weight="400" font-size="32" text-decoration="underline" transform="matrix(1 0 0 1 1573.3 1317)">xh20121017@outlook.com</text><text fill="#0070C0" font-family="OPPO Sans 4.0,OPPO Sans 4.0_MSFontService,sans-serif" font-style="oblique" font-weight="400" font-size="32" text-decoration="underline" transform="matrix(1 0 0 1 1933.09 1317)"> </text><text fill="#0563C1" font-family="OPPO Sans 4.0,OPPO Sans 4.0_MSFontService,sans-serif" font-style="oblique" font-weight="400" font-size="32" text-decoration="underline" transform="matrix(1 0 0 1 1573.3 1355)">HYQY20121017@outlook.com</text><text fill="#0070C0" font-family="OPPO Sans 4.0,OPPO Sans 4.0_MSFontService,sans-serif" font-style="oblique" font-weight="400" font-size="32" text-decoration="underline" transform="matrix(1 0 0 1 1987.52 1355)"> </text></g></svg>