<svg width="149" height="151" xmlns="http://www.w3.org/2000/svg" xmlns:xlink="http://www.w3.org/1999/xlink" xml:space="preserve" overflow="hidden"><g transform="translate(-598 -75)"><path d="M361.546 208.074C361.546 167.742 394.191 135.046 434.462 135.046 474.733 135.046 507.378 167.742 507.378 208.074 507.378 248.406 474.733 281.103 434.462 281.103 394.191 281.103 361.546 248.406 361.546 208.074Z" fill="#C9050F" fill-rule="evenodd" transform="matrix(1.00015 0 0 1 237.973 -60.0461)"/><path d="M412.554 184.818C412.554 172.718 422.362 162.909 434.462 162.909 446.562 162.909 456.371 172.718 456.371 184.818 456.371 196.917 446.562 206.726 434.462 206.726 422.362 206.726 412.554 196.917 412.554 184.818Z" fill="#FFFFFF" fill-rule="evenodd" transform="matrix(1.00015 0 0 1 237.973 -60.0461)"/><path d="M416.823 170.999 420.144 170.999 429.723 170.999 430.638 170.999 432.851 170.999 443.675 170.999 445.619 170.999 448.43 170.999C450.333 170.999 451.876 172.567 451.876 174.502L451.876 196.257C451.876 198.192 450.333 199.76 448.43 199.76L443.675 199.76C441.772 199.76 440.228 198.192 440.228 196.257L440.228 183.442 436.026 183.442 436.026 196.531C436.026 198.314 434.604 199.76 432.851 199.76L420.144 199.76C418.389 199.76 416.967 198.314 416.967 196.531L416.967 181.467 416.823 181.467Z" fill="#C9050F" fill-rule="evenodd" transform="matrix(1.00015 0 0 1 237.973 -60.0461)"/><path d="M442.32 193.728 442.32 193.728 442.32 193.728ZM431.051 174.369 443.983 174.369C445.05 174.369 445.913 175.281 445.913 176.407L445.805 176.683 445.913 176.959 445.913 191.69 450.845 191.69C451.912 191.69 452.775 192.603 452.775 193.728L452.775 193.728C452.775 194.854 451.912 195.766 450.845 195.766L444.288 195.766 444.115 195.842 444.115 195.842C443.124 195.842 442.32 194.992 442.32 193.944L442.32 193.729 442.32 193.728 442.32 193.728 442.32 178.445 432.44 178.445 432.44 193.728 432.44 193.728 432.44 193.728 432.44 193.729 432.44 194.043C432.44 195.091 431.635 195.94 430.642 195.94L430.642 195.94 430.244 195.766 422.836 195.766 422.665 195.842 422.665 195.842C421.672 195.842 420.868 194.992 420.868 193.944L420.868 176.959C420.868 175.911 421.672 175.061 422.665 175.061 423.656 175.061 424.461 175.911 424.461 176.959L424.461 191.69 428.847 191.69 428.847 177.058C428.847 176.533 429.047 176.059 429.373 175.716L429.397 175.704 429.687 174.966C430.035 174.597 430.519 174.369 431.051 174.369Z" fill="#FFFFFF" fill-rule="evenodd" transform="matrix(1.00015 0 0 1 237.973 -60.0461)"/><text fill="#FFFFFF" font-family="Microsoft YaHei,Microsoft YaHei_MSFontService,sans-serif" font-weight="400" font-size="46" transform="matrix(0.224736 0 0 0.224702 631.807 158)">贵阳市新世界学校</text><text fill="#FFFFFF" font-family="Arial,Arial_MSFontService,sans-serif" font-weight="400" font-size="46" transform="matrix(0.224736 0 0 0.224702 713.179 158)"> </text><path d="M378.716 220.433C406.644 220.433 429.946 241.782 435.336 270.162L436.372 281.24 434.734 281.327C429.6 281.327 424.586 280.77 419.744 279.712L416.711 278.876 416.8 277.973C416.8 257.23 400.417 240.416 380.208 240.416 377.682 240.416 375.215 240.679 372.833 241.18L370.584 241.894 369.33 239.688C367.04 235.18 365.146 230.408 363.697 225.424L363.119 223.019 367.067 221.698C370.829 220.869 374.725 220.433 378.716 220.433Z" fill="#FFFFFF" fill-rule="evenodd" transform="matrix(1.00015 0 0 1 237.973 -60.0461)"/><path d="M381.023 243.577C397.575 243.577 411.383 256.435 414.576 273.528L415.025 278.406 412.585 277.734 411.54 277.325 411.376 275.431C408.489 259.014 395.995 246.667 381.023 246.667 378.884 246.667 376.794 246.919 374.779 247.397L374.132 247.631 373.082 246.269 372.332 244.948 374.12 244.339C376.35 243.84 378.657 243.577 381.023 243.577Z" fill="#FFFFFF" fill-rule="evenodd" transform="matrix(1.00015 0 0 1 237.973 -60.0461)"/><path d="M15.5957 0C43.5251 0 66.8274 21.3483 72.2167 49.728L73.253 60.8058 71.6156 60.8943C66.4807 60.8943 61.4673 60.3378 56.6252 59.2778L53.5917 58.4435 53.6807 57.5384C53.6807 36.797 37.2979 19.9828 17.0887 19.9828 14.5625 19.9828 12.0962 20.2455 9.71406 20.7458L7.46486 21.4624 6.21152 19.2557C3.92139 14.7463 2.02698 9.97359 0.57811 4.99082L0 2.5859 3.94793 1.26532C7.71024 0.435653 11.6058 0 15.5957 0Z" fill="#FFFFFF" fill-rule="evenodd" transform="matrix(-1.00015 0 0 1 743.629 160.387)"/><path d="M8.69088 0C25.2419 0 39.051 12.8583 42.2445 29.9517L42.6935 34.8289 40.2534 34.1577 39.2094 33.7487 39.0452 31.8536C36.156 15.4374 23.6636 3.08862 8.69079 3.08862 6.55178 3.08862 4.46344 3.34063 2.44649 3.82055L1.8004 4.05374 0.751074 2.69297 0 1.37015 1.78843 0.762114C4.01797 0.262425 6.3265 0 8.69088 0Z" fill="#FFFFFF" fill-rule="evenodd" transform="matrix(-1.00015 0 0 1 734.415 183.531)"/><text fill="#C9050F" font-family="Impact,Impact_MSFontService,sans-serif" font-weight="400" font-stretch="condensed" font-size="55" transform="matrix(0.224736 0 0 0.224702 659.854 216)">2009</text><path d="M433.9 140.888 435.336 141.048 435.26 150.003 435.404 150.019 437.491 141.287 439.073 141.463 439.138 150.434 439.282 150.45 441.228 141.702 442.664 141.862 439.504 155.494 438.069 155.335 437.956 144.853 437.815 144.837 435.338 155.031 433.903 154.872 433.9 140.888Z" fill="#FFFFFF" fill-rule="evenodd" transform="matrix(1.00015 0 0 1 237.973 -60.0461)"/><path d="M424.35 140.888 425.811 154.968 424.393 155.276 420.854 145.265 420.713 145.295 421.699 155.86 420.279 156.168 415.699 142.766 417.117 142.458 419.976 151.066 420.117 151.036 419.245 141.996 420.805 141.658 423.804 150.235 423.946 150.205 422.933 141.196 424.35 140.888Z" fill="#FFFFFF" fill-rule="evenodd" transform="matrix(1.00015 0 0 1 237.973 -60.0461)"/><path d="M450.11 142.553C451.068 142.75 451.791 143.217 452.283 143.956 453.117 145.206 453.222 147.289 452.605 150.205 451.978 153.167 451.027 155.058 449.755 155.876 449.003 156.36 448.149 156.504 447.194 156.308 446.189 156.102 445.441 155.63 444.949 154.891 444.115 153.641 444.014 151.534 444.641 148.572 445.261 145.656 446.205 143.789 447.477 142.97 448.227 142.486 449.106 142.348 450.11 142.553ZM449.827 143.894C449.299 143.786 448.778 143.899 448.257 144.234 447.506 144.718 446.85 146.277 446.293 148.91 445.724 151.591 445.686 153.3 446.178 154.039 446.517 154.55 446.951 154.86 447.477 154.968 447.955 155.066 448.454 154.948 448.976 154.613 449.726 154.129 450.387 152.547 450.955 149.866 451.512 147.233 451.546 145.547 451.054 144.808 450.715 144.297 450.304 143.992 449.827 143.894Z" fill="#FFFFFF" fill-rule="evenodd" transform="matrix(1.00015 0 0 1 237.973 -60.0461)"/><path d="M412.567 144.034 413.169 145.25 408.358 147.558 410.354 151.59 414.776 149.469 415.378 150.685 410.956 152.806 413.333 157.605 418.468 155.142 419.07 156.358 412.439 159.539 406.262 147.059 412.567 144.034Z" fill="#FFFFFF" fill-rule="evenodd" transform="matrix(1.00015 0 0 1 237.973 -60.0461)"/><path d="M456.699 144.484 460.004 145.917C461.105 146.396 461.851 147.132 462.244 148.127 462.563 148.936 462.487 149.858 462.017 150.892 461.588 151.839 460.95 152.491 460.103 152.846 459.51 153.104 458.986 153.212 458.532 153.17L458.184 160.213 456.598 159.525 456.988 152.732 455.139 151.93 452.499 157.746 450.978 157.087 456.699 144.484ZM457.66 146.371 455.696 150.702 457.613 151.533C458.141 151.763 458.692 151.77 459.265 151.554 459.775 151.362 460.186 150.921 460.498 150.232 460.79 149.586 460.826 148.983 460.606 148.423 460.361 147.801 459.865 147.327 459.114 147.002L457.66 146.371Z" fill="#FFFFFF" fill-rule="evenodd" transform="matrix(1.00015 0 0 1 237.973 -60.0461)"/><path d="M403.366 148.079 410.531 160.242 408.77 161.263 400.134 154.051 400.071 154.088 405.437 163.194 403.99 164.033 396.824 151.87 398.586 150.849 407.221 158.06 407.284 158.024 401.918 148.917 403.366 148.079Z" fill="#FFFFFF" fill-rule="evenodd" transform="matrix(1.00015 0 0 1 237.973 -60.0461)"/><path d="M466.891 148.978 468.28 149.888 461.217 160.37 466.109 163.575 465.347 164.707 459.067 160.591 466.891 148.978Z" fill="#FFFFFF" fill-rule="evenodd" transform="matrix(1.00015 0 0 1 237.973 -60.0461)"/><path d="M475.095 154.595 476.967 156.161C478.104 157.113 478.724 158.193 478.827 159.401 478.958 160.943 478.142 162.752 476.376 164.825 474.641 166.862 473.064 167.94 471.641 168.059 470.289 168.173 469.042 167.753 467.905 166.802L466.033 165.235 475.095 154.595ZM475.477 156.691 468.181 165.258 468.788 165.765C469.448 166.318 470.253 166.554 471.199 166.475 472.214 166.39 473.482 165.456 474.998 163.673 476.549 161.855 477.277 160.409 477.185 159.335 477.111 158.463 476.744 157.751 476.084 157.198L475.477 156.691Z" fill="#FFFFFF" fill-rule="evenodd" transform="matrix(1.00015 0 0 1 237.973 -60.0461)"/><path d="M390.081 159.334C391.245 159.214 392.452 159.643 393.703 160.618L392.739 161.77C391.721 161.038 390.906 160.704 390.29 160.767 389.809 160.816 389.432 161.005 389.158 161.335 388.913 161.627 388.807 161.939 388.843 162.27 389.005 163.725 390.144 165.28 392.267 166.936 394.124 168.385 395.6 169.053 396.696 168.941 397.245 168.885 397.64 168.71 397.885 168.418 398.191 168.052 398.316 167.604 398.258 167.075 398.17 166.281 397.595 165.471 396.535 164.643L395.456 163.8 394.031 165.501 392.951 164.659 395.294 161.86 401.318 166.561 400.539 167.494 399.377 166.86C399.631 167.905 399.465 168.774 398.885 169.469 398.364 170.091 397.692 170.444 396.869 170.528 395.294 170.69 393.407 169.913 391.209 168.198 388.861 166.365 387.596 164.621 387.414 162.968 387.304 161.976 387.526 161.15 388.077 160.492 388.659 159.797 389.326 159.411 390.081 159.334Z" fill="#FFFFFF" fill-rule="evenodd" transform="matrix(1.00015 0 0 1 237.973 -60.0461)"/><path d="M483.027 162.909C484.016 162.898 484.831 163.185 485.472 163.768 486.254 164.482 486.665 165.246 486.701 166.062 486.748 167.081 486.317 168.054 485.404 168.982L484.175 167.863C484.798 167.324 485.094 166.714 485.063 166.035 485.043 165.559 484.854 165.159 484.497 164.834 484.142 164.51 483.726 164.359 483.249 164.381 482.636 164.409 482.135 164.636 481.746 165.062 481.324 165.524 481.166 166.196 481.274 167.076 481.438 168.396 481.697 169.61 482.056 170.718 482.452 171.926 482.243 172.974 481.432 173.862 480.62 174.75 479.704 175.218 478.684 175.264 477.729 175.308 476.807 174.925 475.917 174.114 475.064 173.336 474.616 172.505 474.576 171.621 474.527 170.534 474.859 169.599 475.574 168.817L476.061 168.284 477.288 169.403 476.85 169.883C476.331 170.451 476.084 171.008 476.108 171.551 476.133 172.095 476.358 172.561 476.787 172.951 477.355 173.469 477.913 173.716 478.457 173.691 479.07 173.663 479.603 173.401 480.059 172.903 480.544 172.37 480.686 171.717 480.479 170.943 480.11 169.564 479.825 168.198 479.627 166.844 479.479 165.864 479.746 164.966 480.425 164.152 481.104 163.338 481.971 162.924 483.027 162.909Z" fill="#FFFFFF" fill-rule="evenodd" transform="matrix(1.00015 0 0 1 237.973 -60.0461)"/><path d="M383.785 164.482 395.251 172.811 394.043 174.441 383.214 171.23 383.172 171.289 391.755 177.525 390.764 178.863 379.298 170.534 380.507 168.905 391.335 172.115 391.378 172.057 382.794 165.82 383.785 164.482Z" fill="#FFFFFF" fill-rule="evenodd" transform="matrix(1.00015 0 0 1 237.973 -60.0461)"/><path d="M489.921 171.576C490.851 171.791 491.545 172.267 492.006 173.005 492.491 173.784 492.651 174.54 492.482 175.273 492.161 176.673 491.253 177.814 489.757 178.696L488.914 177.344C490.195 176.482 490.921 175.684 491.089 174.951 491.179 174.551 491.098 174.146 490.842 173.736 490.613 173.367 490.265 173.129 489.8 173.022 488.472 172.715 486.685 173.267 484.438 174.678 482.476 175.91 481.366 177.092 481.108 178.225 480.984 178.758 481.052 179.23 481.308 179.64 481.537 180.009 481.919 180.254 482.45 180.377 483.112 180.531 484.193 180.166 485.69 179.283L486.609 180.759C484.694 181.791 483.207 182.184 482.144 181.938 481.214 181.724 480.506 181.227 480.02 180.448 479.535 179.669 479.398 178.813 479.614 177.88 479.996 176.214 481.268 174.701 483.434 173.341 485.966 171.75 488.128 171.162 489.921 171.576Z" fill="#FFFFFF" fill-rule="evenodd" transform="matrix(1.00015 0 0 1 237.973 -60.0461)"/><path d="M376.426 175.268 390.533 179.086 389.665 180.57 385.565 179.416 383.974 182.135 387.061 185.02 386.194 186.503 375.702 176.504 376.426 175.268ZM379.444 177.702 379.372 177.826 382.956 181.153 384.185 179.051 379.444 177.702Z" fill="#FFFFFF" fill-rule="evenodd" transform="matrix(1.00015 0 0 1 237.973 -60.0461)"/><path d="M495.651 179.088 496.262 180.643 490.977 182.711 492.491 186.564 497.779 184.495 498.39 186.05 485.175 191.222 484.564 189.667 487.883 188.368 491.204 187.068 489.689 183.215 483.047 185.814 482.436 184.26 495.651 179.088Z" fill="#FFFFFF" fill-rule="evenodd" transform="matrix(1.00015 0 0 1 237.973 -60.0461)"/><path d="M373.051 180.885 379.241 186.498 385.365 188.545 384.825 190.098 378.702 188.051 370.31 188.787 370.849 187.234 377.102 186.687 377.127 186.62 372.512 182.439 373.051 180.885Z" fill="#FFFFFF" fill-rule="evenodd" transform="matrix(1.00015 0 0 1 237.973 -60.0461)"/><path d="M495.177 189.431C496.237 189.472 497.087 189.69 497.727 190.087 498.484 190.555 498.972 191.274 499.194 192.244 499.403 193.168 499.266 193.996 498.783 194.729 497.963 195.969 496.075 196.904 493.116 197.534 490.11 198.174 487.966 198.098 486.685 197.305 485.93 196.837 485.447 196.141 485.236 195.217 485.016 194.247 485.148 193.396 485.631 192.663 486.449 191.423 488.361 190.483 491.368 189.843 492.849 189.528 494.118 189.39 495.177 189.431ZM495.022 190.972C494.163 190.997 493.067 191.152 491.73 191.436 489.011 192.016 487.409 192.672 486.926 193.404 486.591 193.911 486.481 194.419 486.595 194.927 486.701 195.389 487.015 195.782 487.539 196.107 488.296 196.575 490.035 196.519 492.754 195.94 495.426 195.371 497.004 194.72 497.489 193.988 497.824 193.48 497.938 192.996 497.833 192.534 497.718 192.026 497.399 191.61 496.875 191.285 496.496 191.051 495.878 190.946 495.022 190.972Z" fill="#FFFFFF" fill-rule="evenodd" transform="matrix(1.00015 0 0 1 237.973 -60.0461)"/><path d="M370.152 190.548 371.743 190.786 371.615 191.533 382.524 193.167 382.652 192.419 384.241 192.657 383.724 195.716 382.133 195.478 382.261 194.73 371.352 193.097 371.224 193.844 369.635 193.606 370.152 190.548Z" fill="#FFFFFF" fill-rule="evenodd" transform="matrix(1.00015 0 0 1 237.973 -60.0461)"/><path d="M369.46 196.615 379.779 197.893C381.028 198.048 381.969 198.52 382.599 199.31 383.059 199.889 383.214 200.762 383.059 201.929L383.05 201.999C382.897 203.167 382.522 203.974 381.927 204.422 381.111 205.033 380.08 205.261 378.83 205.106L368.512 203.828 368.723 202.217 379.041 203.495C379.81 203.591 380.385 203.496 380.765 203.211 381.145 202.926 381.378 202.456 381.464 201.803L381.473 201.733C381.554 201.126 381.446 200.638 381.151 200.269 380.817 199.848 380.289 199.593 379.565 199.504L369.249 198.225 369.46 196.615Z" fill="#FFFFFF" fill-rule="evenodd" transform="matrix(1.00015 0 0 1 237.973 -60.0461)"/><path d="M493.772 198.238C496.77 198.039 498.835 198.432 499.97 199.416 500.639 199.998 501.008 200.793 501.077 201.8 501.142 202.76 500.88 203.572 500.295 204.238 499.302 205.364 497.309 206.026 494.312 206.225 491.267 206.427 489.177 206.036 488.042 205.051 487.373 204.469 487.004 203.699 486.941 202.739 486.874 201.732 487.132 200.895 487.719 200.23 488.71 199.104 490.73 198.44 493.772 198.238ZM493.885 199.893C491.13 200.076 489.46 200.5 488.874 201.165 488.467 201.626 488.283 202.12 488.319 202.648 488.35 203.128 488.6 203.569 489.062 203.972 489.732 204.554 491.444 204.753 494.199 204.57 496.907 204.39 498.554 203.968 499.138 203.302 499.545 202.842 499.731 202.372 499.7 201.892 499.664 201.364 499.415 200.899 498.949 200.496 498.28 199.914 496.592 199.713 493.885 199.893Z" fill="#FFFFFF" fill-rule="evenodd" transform="matrix(1.00015 0 0 1 237.973 -60.0461)"/><path d="M487.379 206.951 501.76 206.951 501.76 208.591 488.782 208.591 488.782 214.366 487.379 214.366 487.379 206.951Z" fill="#FFFFFF" fill-rule="evenodd" transform="matrix(1.00015 0 0 1 237.973 -60.0461)"/><path d="M372.267 207.176 372.267 208.659C371.008 208.706 370.161 208.941 369.725 209.365 369.386 209.694 369.217 210.071 369.217 210.495 369.217 210.872 369.339 211.177 369.579 211.413 370.644 212.449 372.532 212.966 375.242 212.966 377.615 212.966 379.188 212.59 379.96 211.837 380.349 211.46 380.542 211.083 380.542 210.707 380.542 210.236 380.349 209.812 379.96 209.435 379.381 208.871 378.412 208.588 377.057 208.588L375.678 208.588 375.678 210.777 374.298 210.777 374.298 207.176 381.994 207.176 381.994 208.376 380.686 208.588C381.558 209.247 381.994 210.024 381.994 210.918 381.994 211.719 381.704 212.402 381.122 212.966 380.01 214.049 378.051 214.591 375.242 214.591 372.242 214.591 370.137 214.002 368.928 212.825 368.202 212.119 367.838 211.342 367.838 210.495 367.838 209.6 368.103 208.894 368.636 208.376 369.46 207.576 370.669 207.176 372.267 207.176Z" fill="#FFFFFF" fill-rule="evenodd" transform="matrix(1.00015 0 0 1 237.973 -60.0461)"/><path d="M361.546 209.76C361.546 169.489 394.191 136.844 434.462 136.844 474.733 136.844 507.378 169.489 507.378 209.76 507.378 250.031 474.733 282.676 434.462 282.676 394.191 282.676 361.546 250.031 361.546 209.76Z" stroke="#A20000" stroke-width="3.08966" stroke-miterlimit="8" fill="none" fill-rule="evenodd" transform="matrix(1.00015 0 0 1 237.973 -60.0461)"/></g></svg>